# xmcd
#
# Track frame offsets:
#	150
#	17568
#	31443
#	48193
#	60263
#	74345
#	86878
#	99455
#	111165
#	123233
#	134325
#	145788
#	155873
#	175320
#	184185
#	194708
#	207285
#	212480
#	221903
#
# Disc length: 3078
#
# Revision: 2
# Processed by: cddbd v1.5.1PL0 Copyright (c) Steve Scherf et al.
# Submitted via: audiograbber 1.81.03
# Normalized: r1:DSETVAR1
#
DISCID=1f0c0413
DTITLE=Various Artist - The Allstar Country Concert  Disc 4
DYEAR=1900
DGENRE=Country
TTITLE0=Merle Haggard - Ramblin' Fever
TTITLE1=Merle Haggard - That's The Way Love Goes
TTITLE2=Merle Haggard - Today I Started Loving You Again
TTITLE3=Merle Haggard - Okie From Muskogee
TTITLE4=Bobby Bare - Hits Medley - 500 Miles, Four Strong Winds, Shame On Me
TTITLE5=Bobby Bare - Tequila Sheila
TTITLE6=Lynn Anderson - Rose Garden
TTITLE7=Lynn Anderson - I've Never Loved Anyone More
TTITLE8=Lynn Anderson - Where's The Fire
TTITLE9=Porter Wagner - Old Slewfoot
TTITLE10=Porter Wagner - I Thought I Heard You Crying My Name
TTITLE11=Porter Wagner - Sugarfoot Rag
TTITLE12=Jimmy Dean - Bill Bailey
TTITLE13=Jimmy Dean - Big Bad John
TTITLE14=Willie Nelson - I Feel Sorry For Him
TTITLE15=Willie Nelson - If I Don't Understand
TTITLE16=Willie Nelson - The Ghost
TTITLE17=Dave Dudley - Six Days On The Road
TTITLE18=Johnny Cash - Hey Good Lookin'
EXTD=
EXTT0=
EXTT1=
EXTT2=
EXTT3=
EXTT4=
EXTT5=
EXTT6=
EXTT7=
EXTT8=
EXTT9=
EXTT10=
EXTT11=
EXTT12=
EXTT13=
EXTT14=
EXTT15=
EXTT16=
EXTT17=
EXTT18=
PLAYORDER=
